<svg width="35" height="47" viewBox="0 0 35 47" fill="none" xmlns="http://www.w3.org/2000/svg">
<path opacity="0.35" d="M6.88068 5.36364H7.78054C7.71094 3.81747 6.37358 2.67401 4.4794 2.67401C2.60014 2.67401 1.15341 3.80256 1.15341 5.44318C1.15341 6.75071 2.07812 7.57102 3.67401 8.04332L4.89205 8.40128C6.15483 8.76918 7.01989 9.24148 7.01989 10.2805C7.01989 11.5036 5.91122 12.3239 4.38991 12.3239C3.01776 12.3239 1.94389 11.6626 1.84446 10.4545H0.889915C0.99929 12.0653 2.31179 13.174 4.38991 13.174C6.5973 13.174 7.91974 11.9261 7.91974 10.2955C7.91974 8.60511 6.44815 7.92898 5.15554 7.56605L4.08168 7.25781C3.09233 6.9794 2.05327 6.47727 2.05327 5.40341C2.05327 4.30966 3.03267 3.50923 4.45455 3.50923C5.80185 3.50923 6.76634 4.23011 6.88068 5.36364ZM12.046 13.1591C13.6369 13.1591 14.7555 12.1548 14.9593 10.7727H14.0644C13.8606 11.7472 13.0602 12.3487 12.046 12.3487C10.5495 12.3487 9.56017 11.0462 9.56017 9.18679C9.56017 7.33736 10.5793 6.06463 12.046 6.06463C13.1347 6.06463 13.8705 6.76562 14.0595 7.63068H14.9543C14.7455 6.21378 13.5623 5.25923 12.0311 5.25923C10.0325 5.25923 8.67026 6.91974 8.67026 9.21662C8.67026 11.4936 9.9927 13.1591 12.046 13.1591ZM15.946 13H16.8309V8.06818C16.8309 6.93466 17.701 6.11435 18.8941 6.11435C19.1278 6.11435 19.3465 6.15412 19.4261 6.16406V5.2642C19.3068 5.25923 19.1029 5.24929 18.9588 5.24929C17.9992 5.24929 17.1789 5.76633 16.8707 6.53693H16.8061V5.36364H15.946V13ZM22.7618 13.1591C24.7405 13.1591 26.1226 11.5433 26.1226 9.21662C26.1226 6.875 24.7405 5.25923 22.7618 5.25923C20.7831 5.25923 19.401 6.875 19.401 9.21662C19.401 11.5433 20.7831 13.1591 22.7618 13.1591ZM22.7618 12.3487C21.1759 12.3487 20.291 10.9268 20.291 9.21662C20.291 7.50639 21.1759 6.06463 22.7618 6.06463C24.3478 6.06463 25.2327 7.50639 25.2327 9.21662C25.2327 10.9268 24.3478 12.3487 22.7618 12.3487ZM28.0402 2.81818H27.1553V13H28.0402V2.81818ZM30.3568 2.81818H29.4718V13H30.3568V2.81818Z" fill="white"/>
<g opacity="0.35">
<path d="M9 38.6154L16.0583 45.6736C16.2385 45.8539 16.5307 45.8539 16.711 45.6736L23.7692 38.6154" stroke="white" stroke-width="1.84615" stroke-linecap="round"/>
<path d="M16.3848 46L16.3848 29.8545L16.3848 22" stroke="white"/>
</g>
</svg>
